<svg width="25" height="25" xmlns="http://www.w3.org/2000/svg">
 <g>
  <title>Layer 1</title>
  <ellipse class="svg-logo-stroke" ry="11.5" rx="11.5" id="svg_1" cy="12.5" cx="12.5" stroke-width="1.5" stroke="#000" fill="#fff"/>
  <path class="svg-logo-fill" stroke="null" id="svg_4" d="m15.713458,10.128871c0,0 0.567027,-2.368683 0,-3.171065c-0.567695,-0.802383 -0.794105,-1.336855 -2.042366,-1.719488s-0.793437,-0.306377 -1.701082,-0.267236c-0.907644,0.038466 -1.664348,0.534472 -1.664348,0.801708c0,0 -0.567027,0.038466 -0.793437,0.267911c-0.227078,0.229445 -0.605096,1.298389 -0.605096,1.5663s0.189009,2.063656 0.378018,2.445614l-0.225074,0.076257c-0.189009,2.215494 0.756036,2.483405 0.756036,2.483405c0.339949,2.063656 0.680566,1.185016 0.680566,1.719488s-0.340617,0.344168 -0.340617,0.344168s-0.30188,0.840174 -1.057916,1.145876c-0.756036,0.305027 -4.952972,1.947583 -5.294257,2.291751c-0.341285,0.344842 -0.302548,1.948933 -0.302548,1.948933l17.997269,0c0,0 0.039405,-1.604091 -0.30188,-1.948933c-0.341953,-0.344842 -4.538889,-1.986724 -5.294925,-2.291751c-0.756036,-0.305702 -1.057916,-1.145876 -1.057916,-1.145876s-0.340617,0.190304 -0.340617,-0.344168s0.340617,0.344168 0.681234,-1.719488c0,0 0.944377,-0.267911 0.756036,-2.483405l-0.227078,0z" fill-opacity="null" stroke-opacity="null" stroke-width="0" fill="#000000"/>
 </g>
</svg>