<svg width="25" height="25" xmlns="http://www.w3.org/2000/svg">
 <g>
  <title>Layer 1</title>
  <ellipse class="svg-logo-stroke" ry="11.5" rx="11.5" id="svg_1" cy="12.5" cx="12.5" stroke-width="1.5" stroke="#000" fill="#fff"/>
  <path class="svg-logo-fill" stroke="null" id="svg_5" d="m20.311912,9.991349c-0.00232,-1.293729 -1.039423,-2.341955 -2.31956,-2.343712l0,-0.000586l-7.109489,0c-0.292918,-0.950375 -1.16645,-1.645286 -2.207033,-1.647044l-1.667601,0c-1.280717,0.001172 -2.3184,1.049983 -2.32072,2.343712l0,8.313148c0.00232,1.292557 1.040003,2.340783 2.32072,2.343126l10.984704,0c1.278977,-0.002344 2.31724,-1.050569 2.31956,-2.343126l0,-6.665518l-0.00058,0zm-13.303684,-2.820072l1.667601,0c0.606717,-0.002344 1.111927,0.488664 1.150209,1.099201l0.033642,0.549015l8.133251,0c0.633978,0.001172 1.15833,0.530851 1.15949,1.171856l0,0.290034c-0.342801,-0.202145 -0.735484,-0.326362 -1.16007,-0.326948l-10.984704,0c-0.424586,0.000586 -0.817849,0.125389 -1.16007,0.327534l0,-1.938836c0.00174,-0.641005 0.526092,-1.170684 1.16065,-1.171856zm10.984124,10.65686l-10.984124,0c-0.633978,-0.001172 -1.15833,-0.532023 -1.16065,-1.171856l0,-4.358133l0.00058,0c0.00116,-0.641591 0.525512,-1.17127 1.16007,-1.172442l10.984704,0c0.633978,0.001172 1.15485,0.527921 1.16007,1.166583l0,4.363406c-0.00232,0.641591 -0.526672,1.17127 -1.16065,1.172442z" stroke-opacity="null" stroke-width="0" fill="#000000"/>
 </g>
</svg>